<?xml version="1.0" encoding="UTF-8"?>
<svg id="Layer_2" data-name="Layer 2" xmlns="http://www.w3.org/2000/svg" viewBox="0 0 1064.55 255.55">
  <defs>
    <style>
      .cls-1 {
        fill: #e5e6e3;
      }

      .cls-2 {
        fill: #727272;
      }

      .cls-3 {
        fill: #e3e4e0;
      }

      .cls-4 {
        fill: #121214;
      }

      .cls-5 {
        fill: #e8e9e8;
      }

      .cls-6 {
        fill: #e5e5e3;
      }

      .cls-7 {
        fill: #111114;
      }

      .cls-8 {
        fill: #171718;
      }
    </style>
  </defs>
  <g id="Layer_1-2" data-name="Layer 1">
    <g>
      <path class="cls-4" d="M535.67,131.29c-4.89,8.56-22.25,35.86-20.64,43.8,9.75-5.45,16.66-13.77,23.45-22.32,1.71-2.16,3.79-3.54,6.29-1.69,1.84,1.36,2.15,4.2.4,6.83-8.3,12.47-20.03,22.13-33.05,29.49-1.39,7.37-3.33,13.55-6.76,20.02-6.01,11.32-18.85,18.51-31.8,16.04-6.55-1.25-10.73-7.62-13.56-12.96-8.4-15.91,23.77-18.94,35.76-26.79,1.48-.97,1.23-3.79.88-5.51-5.08,2.47-10.13,5.37-16.1,5.07-7.11-.35-11.41-5.71-14.4-12.04-6.6,6.96-13.67,11.37-22.28,12.9-10.14,1.8-18.73-3.76-21.9-13.86-9.1,8.75-24.02,18.72-35.64,12.15-4.84-3.31-7.74-8.21-9.66-14.07-7.19,8.51-20.7,19.41-32.1,14.95-2.8-1.1-4.15-4-5.71-6.74-5.15,4.54-11.46,9.87-18.59,4.03s-10.68-15.79-7.95-25.3c4.31-14.98,14.58-27.63,28.06-35.21,3-1.69,6.62-2.94,9.67-1.79,3.5,1.32,4.85,4.95,6.98,7.95,2.14-1.35,2.75-4.06,5.28-4.46,4.47-.71,10.66,1.59,12.7,5.99,1.28,2.75-1.48,6.01-2.8,8.24-1.57,2.67-21.9,34.84-15.54,35.15,6.69.33,18.89-15.03,20.15-18.15,10.08-24.84,26.05-62.24,48.1-78.32,3.86-2.81,8.01-2.14,11.5.67,5.13,4.11,7.29,10.35,4.64,17.1-7.61,19.39-21.34,36.02-39.07,47.1-2.65,7.02-10.42,24.25-7.52,29.57.61,1.12,2.49,1.87,4.46,1.77,17.65-.88,30.16-25.16,36.99-38.87-6.52-1.69-10.72-8.52-7.77-12.21,3.14-3.93,12.04-2.06,17.13-3.74,3.61-5.77,6.32-12.51,11.91-16.69,3.94-2.94,14.82,4.71,13.85,10.57-.37,2.22-2.55,3.73-3.06,5.95,1.87.68,5.88-.16,7.07,2.61,1.86,4.31-.24,11.75-4.39,14.48-3.39,2.23-7.77-.2-11.59-.35l-15.81,27.06c-2.1,3.59-5.11,9.36-2.86,12.42,2.9,3.94,14.13-1.93,18.98-6.91,13.44-13.77,15.04-26.44,30.08-42.65,2.69-2.9,6.32-2.73,9.3.09,1.62,1.53,6.07,4.27,5.33,7.21-2.64,7.98-23.64,33.59-19.35,40.44,2.4,3.83,14.31-3.47,16.81-8.74,3.45-7.28,14.8-36.81,21.76-38.37,4.17-.93,15.01,3.45,12.36,8.09ZM412.58,117.81s-1.86,4.08-2.09,5.61c1.57-.98,2.51-1.91,3.57-3.19,2.31-2.81,13.26-16.24,17.69-26,.35-.78-.12-2.5-.57-2.84-2.84-2.14-18.61,26.42-18.61,26.42ZM343.01,150.77l7.19-14.49c.57-1.14.71-2.48-.1-2.95-.7-.4-2.5-.55-3.33.39-8.31,9.39-15.03,20.25-18.87,32.26-.32,1.01.18,2.29.68,2.68,3.06,2.44,12.59-14.17,14.43-17.89ZM493.85,195.84c-4.98,2.33-20.46,7.45-20.85,11.39-.15,1.52.9,3.01,2.46,3.8,7.75,3.94,16.98-7.77,18.4-15.19Z"/>
      <path class="cls-4" d="M788.43,177.21c-3.55,3.73-7.88,7.59-13.2,6.47-6.96-1.45-11.31-7.96-13.53-14.78-8.71,8.06-11.88,7.27-23.46,6.43-5.2,6.1-11.94,10.77-20.15,11.12-8.96.39-25.22-14.15-18.53-32.68,4.73-13.12,14.54-23.8,26.52-30.54,6.42-3.61,12.44-1.54,17.57,2.5,3.56-.05,8.92-2.85,12.08.94,2.66,3.19,3.06,7.97,2.51,12.3-1.85,14.45-11.89,24.95-10.76,26.56,1.84,2.64,11.93-6.08,13.85-10.14,3.86-8.15,7.83-15.49,13.9-22.29,5.75-6.45,12.52-12.71,21.38-14.49,4.87-.98,7.94,4.16,9.76,8.23,2.1-.47,2.75-2.94,4.52-3.72,4.19-1.83,8.43.27,11.94,2.59,2.64,1.74,3.23,4.24,1.58,7.04-6.11,10.32-12.35,20.2-17.46,31.1-1.05,2.23-2.97,6.03-.84,7.82,3.69,3.09,18.26-13.16,20.44-17.3l11.2-21.25c-4.9-1.88-8.34-5.5-8.43-10.57-.12-6.33,13.49-4.07,17.75-5.68,2.99-4.38,8.9-16.8,13.66-17.38,5.95-.73,13.83,8.03,12.18,11.32l-2.93,5.83c2.31.28,4.51.12,5.96,1.31,4.75,3.9-.99,14.48-3.49,15.89-3.4,1.93-7.72-.45-11.86-.5l-17.05,30.4c-1.34,2.39-2.94,6.98-1.28,9.12.57.74,1.91,1.23,3.32,1.15,7.3-.42,13-4.67,17.74-10.06,13.96-15.88,22.44-35.31,30.2-44.07,3.69-4.17,6.71,1.8,11.24,5.55,6.24,5.17-2.6,10.25.81,23.82,1.3,5.17,3.08,10.12,5.47,15.14,4.93-3.88,7.81-9.01,12-13.4,1.44-1.51,3.68.06,4.58.97,1.25,1.26,1.36,3.21.34,5-8.9,15.75-26.5,34.32-46.41,26.18-5.62-2.3-9.37-6.31-12.07-11.95-8.84,9.23-23.38,17.72-35.06,12.41-5.07-2.31-7.89-7.07-9.99-12.04-7.91,7-15.35,14-25.77,13.44-4.75-.26-8.24-2.93-10.21-7.82ZM800.73,134.86c-.57-1.73-4.16-.95-5.35.57-4.67,6.01-19.39,27.7-17.31,33.61.15.43,1.2.99,1.88.48,8.54-6.43,16.19-24.34,20.78-34.66ZM743.8,138.9c-4.08.98-6.57,10.8-5.05,13.86,2.16-2.33,8.34-14.65,5.05-13.86ZM883.51,172.31c14.64.8,6.67-20.41,6.39-28.44-4.47,6.35-9.83,11.55-12.62,18.63-1.42,3.61,3.14,8.15,6.23,9.81ZM715.35,172.9c5.76,1.12,10.24-3.4,13.69-7.01-4.32-6.42-3.57-12.42-2.03-20.45-4.84,2.11-18.79,26.08-11.66,27.46Z"/>
      <path class="cls-8" d="M998.35,226.46c7.62.01,7.51-9.62,18.2-15.49,17.05-9.37,43.67-5.47,47.49,11.76,1.76,7.96-1.09,15.77-6.82,21.65-13.64,13.98-39.6,15.94-52.88-.41-1.96-2.41-5.06-4.12-8.47-3.83-4.96.41-10.91-1.55-15.63.19-6.94,2.55-12.34,7.75-19.94,9.2-21.62,4.14-49.97,1.71-69.93-8.5l-18.31.46c-14.97,14.75-41.54,15.22-57.86,2.21l-261.89,5.51-141.43,3.23c-70.16,1.6-152.92-.8-221.38-14.78-25-5.11-48.79-11.46-72.48-20.77-37.51-14.74-77.28-38.11-101.04-71.26C6.51,132.43.08,117.82,0,101.32-.2,58.89,40.97,28.9,76.38,14.35,102.77,3.5,130.57-.73,159.2.1c20.56.6,40.21,2.69,60.18,7.81l108.51,27.79c-16.3,1.24-31.08.29-47.04.47-29.53.34-58.05,2.61-87.52,7.26,5.76-4.07,12.05-6.26,17.37-10.73.94-.69,1.79-1.82,1.49-2.72-.26-.8-1.52-1.93-2.76-2.06-34.76-3.66-75.53-4.81-109.01,6.42-24.31,8.15-47.94,22.91-56.11,48.5-6.82,21.33-2.64,43.57,10.27,61.68,6.99,9.8,15.13,17.84,24.77,25.24,54.9,42.13,135.47,56.06,203.22,60.8,34.57,2.42,68.23,3.5,102.95,2.81l94.88-1.88,333.33-7.32c16.4-15.48,42.93-17.9,59.65-1.53,6.26-.73,12.58.67,18.55-.91l13.4-3.54c10.1-2.67,68.83-8,75.37,8.26l17.67.03ZM822.5,245.03c12.83,5.97,26.76,6.29,40.23-.63,2.77-1.42,5.95-3.23,8.43-5.68,6.13-.32,13.74-1.8,19.69-.32,21.88,9.32,45.58,12.74,68.94,8.25,7.16-1.38,12.08-6.44,18.86-8.79,6.76-2.35,15.66-.76,22.66.21,4,.55,5.68,4.97,8.31,7.21,10.25,8.71,24.46,9.24,36.35,3.49,7.46-3.61,13.32-9.35,15.27-17.63,1.65-7-1.22-14.04-7.69-17.69-14.03-7.91-32.55-5.57-43.22,6.7-2.79,3.21-4.18,8.31-8.82,9.03-7.21,1.13-14.53.13-22.11.47-3.68-5.7-8.84-8.83-15.5-9.72-16.67-2.2-32.94-1.96-49.59-.11-19.24,2.14-18.4,7.18-41.74,5.96-16.04-16.25-41.57-14.25-57.38,1.3l-139.57,3.19-98.59,2.11-113.81,2.31-32.09.79c-107.15,2.63-269.12,4.88-356.71-65.73-8.83-7.12-16.09-14.81-22.7-24.03-13.38-18.69-17.43-42.04-10.25-64.16,5.42-16.73,17.45-29.49,32.45-38.55,28.83-17.42,65.7-21.61,98.8-20.54,12.77.41,24.87,1,37.5,2.59,2.65.33,5.75,3.24,5.37,5.76-.52,3.42-4.06,4.03-5.74,7.13,22.44-2.86,43.88-4.36,66.11-4.65l29.54-.39-76.15-19.64c-24.52-6.32-48.84-9.83-74.27-10.25-44.75-.73-88.67,12.58-122.72,41.68C7.71,65.78-5.16,95.72,8.75,126.95c6.07,13.62,14.88,25.02,25.6,35.49,63.27,61.89,171.33,79.75,256.43,84.87,35.61,2.14,70.44,3.12,106.05,2.35l78.05-1.68,69.21-1.57,78.84-1.6,44.86-.84,96-2.21,52.13-.61c1.96,1.03,3.7,4.21,6.6,3.88Z"/>
      <path class="cls-4" d="M637.26,184.02c-14.55.09-17.72-9.89-22.54-22.29-3.03,6.24-6.21,12.48-7.91,19.59-.57,2.39.95,4.7-.77,7.18-6.14-2.94-11.86-9.75-11.15-16.83,1.26-12.55,26.64-69.63,33.59-85.03-4.64-.08-8.73,2.34-12.86.98-8.32-2.75-21.53-14.08-19.17-19.06,2.39-5.04,40.37-12.31,47.82-12.4l4.05-6.6c1.6-2.61,4.44-3.85,7.45-2.5,3.61,1.63,6.46,4.21,9.18,7.17,10.2-.03,35.35,1.27,42.56,7.81,4.81,4.36,7.79,10.33,10.95,15.85,3.54,6.82,2.61,13.99-2.23,20.13-10.48,13.29-25.81,20.8-42.82,24.07,11.85,6.15,19.75,17.19,17.81,29.91-1.48,9.72-8.46,16.89-16.37,22.16-11.8,5.95-24.34,9.78-37.56,9.86ZM697.91,91.12c1.02-1.3,1.8-2.56,1.6-4.02-.18-1.33-1.5-2.11-3.08-2.7-13.28-3.01-26.58-4.15-40.17-2.58l-14.81,26.75c18.85.11,42.83-3.6,56.45-17.45ZM669.5,136.74c-6.84-9.99-23.84-13.89-35.46-15l-14.66,28.85c4.54,9.32,11.49,23.06,24.56,17.71,11.14-4.56,28.7-18.85,25.56-31.56Z"/>
      <path class="cls-7" d="M307.48,156.91c-3.59,5.91-8.26,10.15-13.88,13.66-19.87,12.45-51.37,21.02-72.43,7.8-7.55-4.74-11.41-12.76-9.77-21.54.67-3.57,3.9-12.63,7.13-13.39,2.81-.66.91,7.14,12.07,14.78,13.36,9.15,36.88,13.48,49.17,3.3,3.3-2.74,4.18-7.09,2.44-10.92-2.17-4.8-5.71-8.17-9.7-11.5-7.5-6.28-15.06-11.9-22.12-18.58-11.16-10.57-13.78-25.92-5.95-39.42,7.35-12.68,18.41-22.94,31.86-29.15,4.79-2.21,9.91-4.34,15.26-4.23,11.82.25,31.16,11.69,26.13,25.89-3.62,10.22-8.52,19.67-15.01,28.24-1.96,2.6-5.75,3.62-8.3,1.62-7.58-5.93-15.63-9.38-11.3-16.34.62-.99,17.77-26.91,8.35-21.89-10.32,5.49-19.07,13.84-24.77,24.19-1.8,3.26-3.16,8.44-.93,11.45,6.02,8.13,26.89,17.94,38.43,29.32,7.33,7.23,8.84,17.66,3.33,26.72Z"/>
      <path class="cls-2" d="M862.73,244.4c.84-1.14,3.38-3.02,1.82-4.79-3.71-4.22-17.47,9.58-39.29.39-1.92-.81-4.54-.14-5.27,1.53l2.51,3.5c-2.91.34-4.64-2.85-6.6-3.88l-52.13.61-96,2.21-44.86.84-78.84,1.6-69.21,1.57-78.05,1.68c-35.61.77-70.44-.2-106.05-2.35-85.1-5.12-193.16-22.98-256.43-84.87-10.71-10.48-19.53-21.88-25.6-35.49-13.92-31.23-1.04-61.17,23.61-82.24C66.42,15.61,110.33,2.29,155.09,3.03c25.43.42,49.75,3.93,74.27,10.25l76.15,19.64-29.54.39c-22.23.29-43.68,1.79-66.11,4.65,1.68-3.1,5.22-3.71,5.74-7.13.38-2.52-2.72-5.42-5.37-5.76-12.62-1.59-24.73-2.18-37.5-2.59-33.1-1.07-69.97,3.12-98.8,20.54-15,9.06-27.02,21.82-32.45,38.55-7.17,22.12-3.13,45.47,10.25,64.16,6.6,9.22,13.87,16.91,22.7,24.03,87.59,70.61,249.56,68.36,356.71,65.73l32.09-.79,113.81-2.31,98.59-2.11,139.57-3.19c15.81-15.56,41.34-17.55,57.38-1.3,23.33,1.22,22.5-3.82,41.74-5.96,16.65-1.85,32.92-2.09,49.59.11,6.66.88,11.82,4.01,15.5,9.72,7.59-.34,14.9.65,22.11-.47,4.64-.72,6.03-5.82,8.82-9.03,10.67-12.27,29.19-14.61,43.22-6.7,6.47,3.65,9.34,10.69,7.69,17.69-1.95,8.29-7.81,14.02-15.27,17.63-11.89,5.75-26.09,5.22-36.35-3.49-2.64-2.24-4.31-6.66-8.31-7.21-7-.97-15.89-2.56-22.66-.21-6.78,2.35-11.69,7.42-18.86,8.79-23.36,4.48-47.06,1.07-68.94-8.25-5.95-1.48-13.56,0-19.69.32-2.48,2.45-5.66,4.26-8.43,5.68ZM1038.87,246.45c8.43-2.44,15.23-8.16,17.42-16.85,1.2-4.75-.52-9.67-4.73-12.41-12.11-7.89-28.39-5.55-37.83,5.75,4.13,4.91,3.88,10.52.5,15.39-3.82,5.51,9.78,12.41,24.63,8.12ZM427.28,245.72l280.69-6.16c.9-2.44.68-4.38-.04-6.93l-179.06,3.79-101.97,2.38c-.27,2.43-.93,4.51.38,6.91ZM962.65,242.24c2.32-.99,4.66-4.33,2.34-6.3-1.87-1.59-5.31-1.26-7.67-.95-10.45,1.35-20.4,1.76-30.87.97-2.73-.2-5.12,1.24-4.9,3.75.16,1.82,1.17,3.49,3.56,4.21,7.52,2.26,29.31,1.83,37.54-1.68Z"/>
      <path class="cls-3" d="M862.73,244.4c-13.46,6.91-27.39,6.6-40.23.63l-2.51-3.5c.73-1.67,3.35-2.34,5.27-1.53,21.82,9.19,35.57-4.61,39.29-.39,1.56,1.77-.98,3.65-1.82,4.79Z"/>
      <path class="cls-6" d="M427.28,245.72c-1.31-2.4-.65-4.48-.38-6.91l101.97-2.38,179.06-3.79c.72,2.55.94,4.49.04,6.93l-280.69,6.16Z"/>
      <path class="cls-5" d="M1038.87,246.45c-14.86,4.29-28.45-2.6-24.63-8.12,3.38-4.87,3.62-10.48-.5-15.39,9.44-11.29,25.72-13.63,37.83-5.75,4.21,2.74,5.93,7.66,4.73,12.41-2.19,8.68-8.99,14.41-17.42,16.85Z"/>
      <path class="cls-1" d="M962.65,242.24c-8.23,3.5-30.02,3.94-37.54,1.68-2.39-.72-3.4-2.39-3.56-4.21-.22-2.51,2.17-3.96,4.9-3.75,10.47.79,20.42.38,30.87-.97,2.36-.31,5.8-.64,7.67.95,2.32,1.97-.03,5.31-2.34,6.3Z"/>
    </g>
  </g>
</svg>