<?xml version="1.0" encoding="UTF-8"?>
<svg id="Layer_1" xmlns="http://www.w3.org/2000/svg" version="1.1" viewBox="0 0 250 250">
  <!-- Generator: Adobe Illustrator 30.1.0, SVG Export Plug-In . SVG Version: 2.1.1 Build 136)  -->
  <defs>
    <style>
      .st0 {
        fill: #f1f1f1;
      }

      .st0, .st1, .st2 {
        stroke: #000;
        stroke-miterlimit: 10;
      }

      .st3 {
        fill: #e2e3df;
      }

      .st1 {
        fill: #2e3191;
      }

      .st4 {
        fill: #e4e5e2;
      }

      .st2 {
        fill: none;
        stroke-width: 2px;
      }

      .st5 {
        fill: #b2b2b2;
      }

      .st6 {
        fill: #171718;
      }
    </style>
  </defs>
  <path class="st6" d="M504.3,636.8c7.6,0,7.5-9.6,18.2-15.5,17.1-9.4,43.7-5.5,47.5,11.8,1.8,8-1.1,15.8-6.8,21.6-13.6,14-39.6,15.9-52.9-.4-2-2.4-5.1-4.1-8.5-3.8-5,.4-10.9-1.5-15.6.2-6.9,2.5-12.3,7.8-19.9,9.2-21.6,4.1-50,1.7-69.9-8.5l-18.3.5c-15,14.8-41.5,15.2-57.9,2.2l-261.9,5.5-141.4,3.2c-70.2,1.6-152.9-.8-221.4-14.8-25-5.1-48.8-11.5-72.5-20.8-37.5-14.7-77.3-38.1-101-71.3-9.5-13.2-15.9-27.8-16-44.3-.2-42.4,41-72.4,76.4-87,26.4-10.8,54.2-15.1,82.8-14.2,20.6.6,40.2,2.7,60.2,7.8l108.5,27.8c-16.3,1.2-31.1.3-47,.5-29.5.3-58.1,2.6-87.5,7.3,5.8-4.1,12.1-6.3,17.4-10.7.9-.7,1.8-1.8,1.5-2.7-.3-.8-1.5-1.9-2.8-2.1-34.8-3.7-75.5-4.8-109,6.4-24.3,8.2-47.9,22.9-56.1,48.5-6.8,21.3-2.6,43.6,10.3,61.7,7,9.8,15.1,17.8,24.8,25.2,54.9,42.1,135.5,56.1,203.2,60.8,34.6,2.4,68.2,3.5,103,2.8l94.9-1.9,333.3-7.3c16.4-15.5,42.9-17.9,59.7-1.5,6.3-.7,12.6.7,18.5-.9l13.4-3.5c10.1-2.7,68.8-8,75.4,8.3h17.7s0,0,0,0ZM328.5,655.4c12.8,6,26.8,6.3,40.2-.6,2.8-1.4,6-3.2,8.4-5.7,6.1-.3,13.7-1.8,19.7-.3,21.9,9.3,45.6,12.7,68.9,8.2,7.2-1.4,12.1-6.4,18.9-8.8,6.8-2.4,15.7-.8,22.7.2,4,.5,5.7,5,8.3,7.2,10.2,8.7,24.5,9.2,36.3,3.5,7.5-3.6,13.3-9.4,15.3-17.6,1.7-7-1.2-14-7.7-17.7-14-7.9-32.6-5.6-43.2,6.7-2.8,3.2-4.2,8.3-8.8,9-7.2,1.1-14.5.1-22.1.5-3.7-5.7-8.8-8.8-15.5-9.7-16.7-2.2-32.9-2-49.6-.1-19.2,2.1-18.4,7.2-41.7,6-16-16.2-41.6-14.2-57.4,1.3l-139.6,3.2-98.6,2.1-113.8,2.3-32.1.8c-107.1,2.6-269.1,4.9-356.7-65.7-8.8-7.1-16.1-14.8-22.7-24-13.4-18.7-17.4-42-10.2-64.2,5.4-16.7,17.4-29.5,32.4-38.6,28.8-17.4,65.7-21.6,98.8-20.5,12.8.4,24.9,1,37.5,2.6,2.6.3,5.8,3.2,5.4,5.8-.5,3.4-4.1,4-5.7,7.1,22.4-2.9,43.9-4.4,66.1-4.7l29.5-.4-76.1-19.6c-24.5-6.3-48.8-9.8-74.3-10.2-44.8-.7-88.7,12.6-122.7,41.7-24.7,21.1-37.5,51-23.6,82.2,6.1,13.6,14.9,25,25.6,35.5,63.3,61.9,171.3,79.8,256.4,84.9,35.6,2.1,70.4,3.1,106,2.4l78-1.7,69.2-1.6,78.8-1.6,44.9-.8,96-2.2,52.1-.6c2,1,3.7,4.2,6.6,3.9h0Z"/>
  <g>
    <path class="st0" d="M50.6,544.6c-4.9,8.6-22.2,35.9-20.6,43.8,9.8-5.4,16.7-13.8,23.5-22.3,1.7-2.2,3.8-3.5,6.3-1.7,1.8,1.4,2.2,4.2.4,6.8-8.3,12.5-20,22.1-33,29.5-1.4,7.4-3.3,13.6-6.8,20-6,11.3-18.8,18.5-31.8,16-6.5-1.2-10.7-7.6-13.6-13-8.4-15.9,23.8-18.9,35.8-26.8,1.5-1,1.2-3.8.9-5.5-5.1,2.5-10.1,5.4-16.1,5.1-7.1-.4-11.4-5.7-14.4-12-6.6,7-13.7,11.4-22.3,12.9-10.1,1.8-18.7-3.8-21.9-13.9-9.1,8.8-24,18.7-35.6,12.1-4.8-3.3-7.7-8.2-9.7-14.1-7.2,8.5-20.7,19.4-32.1,14.9-2.8-1.1-4.1-4-5.7-6.7-5.1,4.5-11.5,9.9-18.6,4-7.2-5.9-10.7-15.8-8-25.3,4.3-15,14.6-27.6,28.1-35.2,3-1.7,6.6-2.9,9.7-1.8,3.5,1.3,4.9,4.9,7,7.9,2.1-1.4,2.8-4.1,5.3-4.5,4.5-.7,10.7,1.6,12.7,6,1.3,2.8-1.5,6-2.8,8.2-1.6,2.7-21.9,34.8-15.5,35.2,6.7.3,18.9-15,20.1-18.1,10.1-24.8,26-62.2,48.1-78.3,3.9-2.8,8-2.1,11.5.7,5.1,4.1,7.3,10.3,4.6,17.1-7.6,19.4-21.3,36-39.1,47.1-2.6,7-10.4,24.2-7.5,29.6.6,1.1,2.5,1.9,4.5,1.8,17.6-.9,30.2-25.2,37-38.9-6.5-1.7-10.7-8.5-7.8-12.2,3.1-3.9,12-2.1,17.1-3.7,3.6-5.8,6.3-12.5,11.9-16.7,3.9-2.9,14.8,4.7,13.8,10.6-.4,2.2-2.5,3.7-3.1,5.9,1.9.7,5.9-.2,7.1,2.6,1.9,4.3-.2,11.8-4.4,14.5-3.4,2.2-7.8-.2-11.6-.4l-15.8,27.1c-2.1,3.6-5.1,9.4-2.9,12.4,2.9,3.9,14.1-1.9,19-6.9,13.4-13.8,15-26.4,30.1-42.6,2.7-2.9,6.3-2.7,9.3,0,1.6,1.5,6.1,4.3,5.3,7.2-2.6,8-23.6,33.6-19.3,40.4,2.4,3.8,14.3-3.5,16.8-8.7,3.5-7.3,14.8-36.8,21.8-38.4,4.2-.9,15,3.4,12.4,8.1h0ZM-72.5,531.1s-1.9,4.1-2.1,5.6c1.6-1,2.5-1.9,3.6-3.2,2.3-2.8,13.3-16.2,17.7-26,.4-.8-.1-2.5-.6-2.8-2.8-2.1-18.6,26.4-18.6,26.4h0ZM-142,564.1l7.2-14.5c.6-1.1.7-2.5-.1-2.9-.7-.4-2.5-.6-3.3.4-8.3,9.4-15,20.2-18.9,32.3-.3,1,.2,2.3.7,2.7,3.1,2.4,12.6-14.2,14.4-17.9h0ZM8.8,609.2c-5,2.3-20.5,7.4-20.8,11.4-.2,1.5.9,3,2.5,3.8,7.8,3.9,17-7.8,18.4-15.2h0Z"/>
    <path class="st0" d="M303.4,590.6c-3.5,3.7-7.9,7.6-13.2,6.5-7-1.4-11.3-8-13.5-14.8-8.7,8.1-11.9,7.3-23.5,6.4-5.2,6.1-11.9,10.8-20.2,11.1-9,.4-25.2-14.1-18.5-32.7,4.7-13.1,14.5-23.8,26.5-30.5,6.4-3.6,12.4-1.5,17.6,2.5,3.6,0,8.9-2.9,12.1.9,2.7,3.2,3.1,8,2.5,12.3-1.8,14.4-11.9,24.9-10.8,26.6,1.8,2.6,11.9-6.1,13.8-10.1,3.9-8.1,7.8-15.5,13.9-22.3,5.8-6.4,12.5-12.7,21.4-14.5,4.9-1,7.9,4.2,9.8,8.2,2.1-.5,2.8-2.9,4.5-3.7,4.2-1.8,8.4.3,11.9,2.6,2.6,1.7,3.2,4.2,1.6,7-6.1,10.3-12.3,20.2-17.5,31.1-1,2.2-3,6-.8,7.8,3.7,3.1,18.3-13.2,20.4-17.3l11.2-21.2c-4.9-1.9-8.3-5.5-8.4-10.6-.1-6.3,13.5-4.1,17.8-5.7,3-4.4,8.9-16.8,13.7-17.4,6-.7,13.8,8,12.2,11.3l-2.9,5.8c2.3.3,4.5.1,6,1.3,4.8,3.9-1,14.5-3.5,15.9-3.4,1.9-7.7-.4-11.9-.5l-17,30.4c-1.3,2.4-2.9,7-1.3,9.1.6.7,1.9,1.2,3.3,1.1,7.3-.4,13-4.7,17.7-10.1,14-15.9,22.4-35.3,30.2-44.1,3.7-4.2,6.7,1.8,11.2,5.6,6.2,5.2-2.6,10.2.8,23.8,1.3,5.2,3.1,10.1,5.5,15.1,4.9-3.9,7.8-9,12-13.4,1.4-1.5,3.7,0,4.6,1,1.2,1.3,1.4,3.2.3,5-8.9,15.8-26.5,34.3-46.4,26.2-5.6-2.3-9.4-6.3-12.1-11.9-8.8,9.2-23.4,17.7-35.1,12.4-5.1-2.3-7.9-7.1-10-12-7.9,7-15.3,14-25.8,13.4-4.8-.3-8.2-2.9-10.2-7.8h0ZM315.7,548.2c-.6-1.7-4.2-.9-5.3.6-4.7,6-19.4,27.7-17.3,33.6.2.4,1.2,1,1.9.5,8.5-6.4,16.2-24.3,20.8-34.7h0ZM258.8,552.2c-4.1,1-6.6,10.8-5,13.9,2.2-2.3,8.3-14.6,5-13.9ZM398.5,585.6c14.6.8,6.7-20.4,6.4-28.4-4.5,6.4-9.8,11.6-12.6,18.6-1.4,3.6,3.1,8.1,6.2,9.8ZM230.3,586.2c5.8,1.1,10.2-3.4,13.7-7-4.3-6.4-3.6-12.4-2-20.4-4.8,2.1-18.8,26.1-11.7,27.5h0Z"/>
    <path class="st0" d="M152.2,597.4c-14.5,0-17.7-9.9-22.5-22.3-3,6.2-6.2,12.5-7.9,19.6-.6,2.4,1,4.7-.8,7.2-6.1-2.9-11.9-9.8-11.2-16.8,1.3-12.6,26.6-69.6,33.6-85-4.6,0-8.7,2.3-12.9,1-8.3-2.8-21.5-14.1-19.2-19.1s40.4-12.3,47.8-12.4l4-6.6c1.6-2.6,4.4-3.8,7.5-2.5,3.6,1.6,6.5,4.2,9.2,7.2,10.2,0,35.3,1.3,42.6,7.8,4.8,4.4,7.8,10.3,11,15.8,3.5,6.8,2.6,14-2.2,20.1-10.5,13.3-25.8,20.8-42.8,24.1,11.8,6.1,19.8,17.2,17.8,29.9-1.5,9.7-8.5,16.9-16.4,22.2-11.8,5.9-24.3,9.8-37.6,9.9h0ZM212.9,504.5c1-1.3,1.8-2.6,1.6-4-.2-1.3-1.5-2.1-3.1-2.7-13.3-3-26.6-4.2-40.2-2.6l-14.8,26.8c18.8.1,42.8-3.6,56.5-17.4h0ZM184.5,550.1c-6.8-10-23.8-13.9-35.5-15l-14.7,28.9c4.5,9.3,11.5,23.1,24.6,17.7,11.1-4.6,28.7-18.9,25.6-31.6h0Z"/>
    <path class="st0" d="M-177.6,570.2c-3.6,5.9-8.3,10.1-13.9,13.7-19.9,12.4-51.4,21-72.4,7.8-7.6-4.7-11.4-12.8-9.8-21.5.7-3.6,3.9-12.6,7.1-13.4,2.8-.7.9,7.1,12.1,14.8,13.4,9.1,36.9,13.5,49.2,3.3,3.3-2.7,4.2-7.1,2.4-10.9-2.2-4.8-5.7-8.2-9.7-11.5-7.5-6.3-15.1-11.9-22.1-18.6-11.2-10.6-13.8-25.9-6-39.4,7.4-12.7,18.4-22.9,31.9-29.2,4.8-2.2,9.9-4.3,15.3-4.2,11.8.2,31.2,11.7,26.1,25.9-3.6,10.2-8.5,19.7-15,28.2-2,2.6-5.8,3.6-8.3,1.6-7.6-5.9-15.6-9.4-11.3-16.3.6-1,17.8-26.9,8.4-21.9-10.3,5.5-19.1,13.8-24.8,24.2-1.8,3.3-3.2,8.4-.9,11.4,6,8.1,26.9,17.9,38.4,29.3,7.3,7.2,8.8,17.7,3.3,26.7h0Z"/>
  </g>
  <g>
    <path class="st1" d="M47.9,541.3c-4.9,8.6-22.2,35.9-20.6,43.8,9.8-5.4,16.7-13.8,23.5-22.3,1.7-2.2,3.8-3.5,6.3-1.7,1.8,1.4,2.2,4.2.4,6.8-8.3,12.5-20,22.1-33,29.5-1.4,7.4-3.3,13.6-6.8,20-6,11.3-18.8,18.5-31.8,16-6.5-1.2-10.7-7.6-13.6-13-8.4-15.9,23.8-18.9,35.8-26.8,1.5-1,1.2-3.8.9-5.5-5.1,2.5-10.1,5.4-16.1,5.1-7.1-.4-11.4-5.7-14.4-12-6.6,7-13.7,11.4-22.3,12.9-10.1,1.8-18.7-3.8-21.9-13.9-9.1,8.8-24,18.7-35.6,12.1-4.8-3.3-7.7-8.2-9.7-14.1-7.2,8.5-20.7,19.4-32.1,14.9-2.8-1.1-4.1-4-5.7-6.7-5.1,4.5-11.5,9.9-18.6,4-7.2-5.9-10.7-15.8-8-25.3,4.3-15,14.6-27.6,28.1-35.2,3-1.7,6.6-2.9,9.7-1.8,3.5,1.3,4.9,4.9,7,7.9,2.1-1.4,2.8-4.1,5.3-4.5,4.5-.7,10.7,1.6,12.7,6,1.3,2.8-1.5,6-2.8,8.2-1.6,2.7-21.9,34.8-15.5,35.2,6.7.3,18.9-15,20.1-18.1,10.1-24.8,26-62.2,48.1-78.3,3.9-2.8,8-2.1,11.5.7,5.1,4.1,7.3,10.3,4.6,17.1-7.6,19.4-21.3,36-39.1,47.1-2.6,7-10.4,24.2-7.5,29.6.6,1.1,2.5,1.9,4.5,1.8,17.6-.9,30.2-25.2,37-38.9-6.5-1.7-10.7-8.5-7.8-12.2,3.1-3.9,12-2.1,17.1-3.7,3.6-5.8,6.3-12.5,11.9-16.7,3.9-2.9,14.8,4.7,13.9,10.6-.4,2.2-2.5,3.7-3.1,5.9,1.9.7,5.9-.2,7.1,2.6,1.9,4.3-.2,11.8-4.4,14.5-3.4,2.2-7.8-.2-11.6-.4l-15.8,27.1c-2.1,3.6-5.1,9.4-2.9,12.4,2.9,3.9,14.1-1.9,19-6.9,13.4-13.8,15-26.4,30.1-42.6,2.7-2.9,6.3-2.7,9.3,0,1.6,1.5,6.1,4.3,5.3,7.2-2.6,8-23.6,33.6-19.3,40.4,2.4,3.8,14.3-3.5,16.8-8.7,3.5-7.3,14.8-36.8,21.8-38.4,4.2-.9,15,3.4,12.4,8.1h0ZM-75.1,527.8s-1.9,4.1-2.1,5.6c1.6-1,2.5-1.9,3.6-3.2,2.3-2.8,13.3-16.2,17.7-26,.4-.8-.1-2.5-.6-2.8-2.8-2.1-18.6,26.4-18.6,26.4h0ZM-144.7,560.7l7.2-14.5c.6-1.1.7-2.5-.1-2.9-.7-.4-2.5-.6-3.3.4-8.3,9.4-15,20.2-18.9,32.3-.3,1,.2,2.3.7,2.7,3.1,2.4,12.6-14.2,14.4-17.9h0ZM6.1,605.8c-5,2.3-20.5,7.4-20.9,11.4-.1,1.5.9,3,2.5,3.8,7.8,3.9,17-7.8,18.4-15.2h0Z"/>
    <path class="st1" d="M300.7,587.2c-3.5,3.7-7.9,7.6-13.2,6.5-7-1.4-11.3-8-13.5-14.8-8.7,8.1-11.9,7.3-23.5,6.4-5.2,6.1-11.9,10.8-20.2,11.1-9,.4-25.2-14.1-18.5-32.7,4.7-13.1,14.5-23.8,26.5-30.5,6.4-3.6,12.4-1.5,17.6,2.5,3.6,0,8.9-2.9,12.1.9,2.7,3.2,3.1,8,2.5,12.3-1.8,14.4-11.9,24.9-10.8,26.6,1.8,2.6,11.9-6.1,13.8-10.1,3.9-8.1,7.8-15.5,13.9-22.3,5.8-6.4,12.5-12.7,21.4-14.5,4.9-1,7.9,4.2,9.8,8.2,2.1-.5,2.8-2.9,4.5-3.7,4.2-1.8,8.4.3,11.9,2.6,2.6,1.7,3.2,4.2,1.6,7-6.1,10.3-12.3,20.2-17.5,31.1-1,2.2-3,6-.8,7.8,3.7,3.1,18.3-13.2,20.4-17.3l11.2-21.2c-4.9-1.9-8.3-5.5-8.4-10.6-.1-6.3,13.5-4.1,17.8-5.7,3-4.4,8.9-16.8,13.7-17.4,6-.7,13.8,8,12.2,11.3l-2.9,5.8c2.3.3,4.5.1,6,1.3,4.8,3.9-1,14.5-3.5,15.9-3.4,1.9-7.7-.4-11.9-.5l-17,30.4c-1.3,2.4-2.9,7-1.3,9.1.6.7,1.9,1.2,3.3,1.1,7.3-.4,13-4.7,17.7-10.1,14-15.9,22.4-35.3,30.2-44.1,3.7-4.2,6.7,1.8,11.2,5.6,6.2,5.2-2.6,10.2.8,23.8,1.3,5.2,3.1,10.1,5.5,15.1,4.9-3.9,7.8-9,12-13.4,1.4-1.5,3.7,0,4.6,1,1.2,1.3,1.4,3.2.3,5-8.9,15.8-26.5,34.3-46.4,26.2-5.6-2.3-9.4-6.3-12.1-11.9-8.8,9.2-23.4,17.7-35.1,12.4-5.1-2.3-7.9-7.1-10-12-7.9,7-15.3,14-25.8,13.4-4.8-.3-8.2-2.9-10.2-7.8h0ZM313,544.8c-.6-1.7-4.2-.9-5.3.6-4.7,6-19.4,27.7-17.3,33.6.2.4,1.2,1,1.9.5,8.5-6.4,16.2-24.3,20.8-34.7h0ZM256.1,548.9c-4.1,1-6.6,10.8-5,13.9,2.2-2.3,8.3-14.6,5-13.9ZM395.8,582.3c14.6.8,6.7-20.4,6.4-28.4-4.5,6.4-9.8,11.6-12.6,18.6-1.4,3.6,3.1,8.1,6.2,9.8ZM227.6,582.9c5.8,1.1,10.2-3.4,13.7-7-4.3-6.4-3.6-12.4-2-20.4-4.8,2.1-18.8,26.1-11.7,27.5Z"/>
    <path class="st1" d="M149.5,594c-14.5,0-17.7-9.9-22.5-22.3-3,6.2-6.2,12.5-7.9,19.6-.6,2.4,1,4.7-.8,7.2-6.1-2.9-11.9-9.8-11.2-16.8,1.3-12.6,26.6-69.6,33.6-85-4.6,0-8.7,2.3-12.9,1-8.3-2.8-21.5-14.1-19.2-19.1s40.4-12.3,47.8-12.4l4-6.6c1.6-2.6,4.4-3.8,7.5-2.5,3.6,1.6,6.5,4.2,9.2,7.2,10.2,0,35.3,1.3,42.6,7.8,4.8,4.4,7.8,10.3,11,15.8,3.5,6.8,2.6,14-2.2,20.1-10.5,13.3-25.8,20.8-42.8,24.1,11.8,6.1,19.8,17.2,17.8,29.9-1.5,9.7-8.5,16.9-16.4,22.2-11.8,5.9-24.3,9.8-37.6,9.9h0ZM210.2,501.1c1-1.3,1.8-2.6,1.6-4-.2-1.3-1.5-2.1-3.1-2.7-13.3-3-26.6-4.2-40.2-2.6l-14.8,26.8c18.8.1,42.8-3.6,56.5-17.4h0ZM181.8,546.7c-6.8-10-23.8-13.9-35.5-15l-14.7,28.9c4.5,9.3,11.5,23.1,24.6,17.7,11.1-4.6,28.7-18.9,25.6-31.6h0Z"/>
    <path class="st1" d="M-180.3,566.9c-3.6,5.9-8.3,10.1-13.9,13.7-19.9,12.4-51.4,21-72.4,7.8-7.6-4.7-11.4-12.8-9.8-21.5.7-3.6,3.9-12.6,7.1-13.4,2.8-.7.9,7.1,12.1,14.8,13.4,9.1,36.9,13.5,49.2,3.3,3.3-2.7,4.2-7.1,2.4-10.9-2.2-4.8-5.7-8.2-9.7-11.5-7.5-6.3-15.1-11.9-22.1-18.6-11.2-10.6-13.8-25.9-6-39.4,7.4-12.7,18.4-22.9,31.9-29.2,4.8-2.2,9.9-4.3,15.3-4.2,11.8.2,31.2,11.7,26.1,25.9-3.6,10.2-8.5,19.7-15,28.2-2,2.6-5.8,3.6-8.3,1.6-7.6-5.9-15.6-9.4-11.3-16.3.6-1,17.8-26.9,8.4-21.9-10.3,5.5-19.1,13.8-24.8,24.2-1.8,3.3-3.2,8.4-.9,11.4,6,8.1,26.9,17.9,38.4,29.3,7.3,7.2,8.8,17.7,3.3,26.7h0Z"/>
  </g>
  <path class="st5" d="M368.7,654.7c.8-1.1,3.4-3,1.8-4.8-3.7-4.2-17.5,9.6-39.3.4-1.9-.8-4.5-.1-5.3,1.5l2.5,3.5c-2.9.3-4.6-2.9-6.6-3.9l-52.1.6-96,2.2-44.9.8-78.8,1.6-69.2,1.6-78.1,1.7c-35.6.8-70.4-.2-106-2.4-85.1-5.1-193.2-23-256.4-84.9-10.7-10.5-19.5-21.9-25.6-35.5-13.9-31.2-1-61.2,23.6-82.2,34-29.1,78-42.4,122.7-41.7,25.4.4,49.8,3.9,74.3,10.2l76.1,19.6-29.5.4c-22.2.3-43.7,1.8-66.1,4.7,1.7-3.1,5.2-3.7,5.7-7.1.4-2.5-2.7-5.4-5.4-5.8-12.6-1.6-24.7-2.2-37.5-2.6-33.1-1.1-70,3.1-98.8,20.5-15,9.1-27,21.8-32.4,38.6-7.2,22.1-3.1,45.5,10.2,64.2,6.6,9.2,13.9,16.9,22.7,24,87.6,70.6,249.6,68.4,356.7,65.7l32.1-.8,113.8-2.3,98.6-2.1,139.6-3.2c15.8-15.6,41.3-17.6,57.4-1.3,23.3,1.2,22.5-3.8,41.7-6,16.7-1.9,32.9-2.1,49.6.1,6.7.9,11.8,4,15.5,9.7,7.6-.3,14.9.6,22.1-.5,4.6-.7,6-5.8,8.8-9,10.7-12.3,29.2-14.6,43.2-6.7,6.5,3.7,9.3,10.7,7.7,17.7-1.9,8.3-7.8,14-15.3,17.6-11.9,5.8-26.1,5.2-36.3-3.5-2.6-2.2-4.3-6.7-8.3-7.2-7-1-15.9-2.6-22.7-.2-6.8,2.4-11.7,7.4-18.9,8.8-23.4,4.5-47.1,1.1-68.9-8.2-6-1.5-13.6,0-19.7.3-2.5,2.5-5.7,4.3-8.4,5.7h0ZM544.8,656.8c8.4-2.4,15.2-8.2,17.4-16.9,1.2-4.8-.5-9.7-4.7-12.4-12.1-7.9-28.4-5.6-37.8,5.8,4.1,4.9,3.9,10.5.5,15.4-3.8,5.5,9.8,12.4,24.6,8.1h0ZM468.6,652.6c2.3-1,4.7-4.3,2.3-6.3-1.9-1.6-5.3-1.3-7.7-1-10.5,1.4-20.4,1.8-30.9,1-2.7-.2-5.1,1.2-4.9,3.8.2,1.8,1.2,3.5,3.6,4.2,7.5,2.3,29.3,1.8,37.5-1.7Z"/>
  <path class="st3" d="M368.7,654.7c-13.5,6.9-27.4,6.6-40.2.6l-2.5-3.5c.7-1.7,3.3-2.3,5.3-1.5,21.8,9.2,35.6-4.6,39.3-.4,1.6,1.8-1,3.6-1.8,4.8Z"/>
  <path class="st2" d="M544.8,656.8c-14.9,4.3-28.4-2.6-24.6-8.1,3.4-4.9,3.6-10.5-.5-15.4,9.4-11.3,25.7-13.6,37.8-5.8,4.2,2.7,5.9,7.7,4.7,12.4-2.2,8.7-9,14.4-17.4,16.9h0Z"/>
  <path class="st4" d="M468.6,652.6c-8.2,3.5-30,3.9-37.5,1.7-2.4-.7-3.4-2.4-3.6-4.2-.2-2.5,2.2-4,4.9-3.8,10.5.8,20.4.4,30.9-1,2.4-.3,5.8-.6,7.7,1,2.3,2,0,5.3-2.3,6.3Z"/>
  <g>
    <path class="st6" d="M250,241.7c-15.7-.2-31.2-1-47.1-2.3-57.9-4.7-131.5-21.2-174.6-78.3-7.3-9.7-13.3-20.2-17.4-32.8-9.5-28.8-.7-56.5,16.1-75.9C50.1,25.5,80.1,13.2,110.5,13.9c17.3.4,33.9,3.6,50.6,9.5l51.8,18.1-20.1.4c-15.1.3-29.7,1.7-45,4.3,1.1-2.9,3.6-3.4,3.9-6.6.3-2.3-1.9-5-3.7-5.3-8.6-1.5-16.8-2-25.5-2.4-22.5-1-47.6,2.9-67.3,19-10.2,8.4-18.4,20.1-22.1,35.6-4.9,20.4-2.1,42,7,59.2,4.5,8.5,9.4,15.6,15.5,22.2,47.5,51.9,127.1,61.2,194.4,61.5,0-.9,0-1.8,0-2.6-17.6-.1-35-1.1-52.7-2.8-46.1-4.4-101-17.2-138.4-56.1-6.6-6.8-12.1-14.3-16.9-23.3-8.8-16.7-11.6-37.2-7-56.9,5.6-23.6,21.7-37.2,38.2-44.8,22.8-10.4,50.6-9.3,74.2-5.9.8.1,1.7,1.2,1.9,1.9.2.8-.4,1.9-1,2.5-3.6,4.1-7.9,6.1-11.8,9.9,20.1-4.3,39.5-6.4,59.6-6.7,10.9-.2,20.9.7,32-.4l-73.9-25.7c-13.6-4.7-27-6.7-41-7.2-19.5-.8-38.4,3.1-56.4,13.1C32.8,37.8,4.8,65.4,4.9,104.6c0,15.2,4.4,28.7,10.9,40.9,16.2,30.6,43.3,52.2,68.8,65.8,16.1,8.6,32.3,14.5,49.3,19.2,35.7,9.9,77.1,13.5,116,14,0-.9,0-1.8,0-2.7Z"/>
    <path class="st5" d="M250,229.3c-67.3-.4-146.9-9.6-194.4-61.5-6-6.6-11-13.7-15.5-22.2-9.1-17.3-11.9-38.8-7-59.2,3.7-15.4,11.9-27.2,22.1-35.6,19.6-16.1,44.7-19.9,67.3-19,8.7.4,16.9.9,25.5,2.4,1.8.3,3.9,3,3.7,5.3-.4,3.2-2.8,3.7-3.9,6.6,15.3-2.6,29.9-4,45-4.3l20.1-.4-51.8-18.1c-16.7-5.8-33.3-9.1-50.6-9.5-30.5-.7-60.4,11.6-83.6,38.5C10.2,71.8,1.4,99.4,10.9,128.2c4.1,12.6,10.1,23.1,17.4,32.8,43.1,57.1,116.7,73.6,174.6,78.3,15.8,1.3,31.4,2.1,47.1,2.3,0-4.1,0-8.2,0-12.4Z"/>
  </g>
  <path class="st0" d="M156.8,180.7c-12,0-14.7-8.2-18.7-18.4-2.5,5.2-5.1,10.3-6.5,16.2-.5,2,.8,3.9-.6,5.9-5.1-2.4-9.8-8.1-9.2-13.9,1-10.4,22-57.6,27.8-70.4-3.8,0-7.2,1.9-10.6.8-6.9-2.3-17.8-11.7-15.9-15.8s33.4-10.2,39.6-10.3l3.4-5.5c1.3-2.2,3.7-3.2,6.2-2.1,3,1.3,5.3,3.5,7.6,5.9,8.4,0,29.3,1.1,35.2,6.5,4,3.6,6.4,8.5,9.1,13.1,2.9,5.6,2.2,11.6-1.8,16.7-8.7,11-21.4,17.2-35.4,19.9,9.8,5.1,16.3,14.2,14.7,24.8-1.2,8-7,14-13.5,18.3-9.8,4.9-20.1,8.1-31.1,8.2h0ZM207,103.8c.8-1.1,1.5-2.1,1.3-3.3-.1-1.1-1.2-1.7-2.5-2.2-11-2.5-22-3.4-33.2-2.1l-12.3,22.1c15.6,0,35.4-3,46.7-14.4h0ZM183.5,141.5c-5.7-8.3-19.7-11.5-29.3-12.4l-12.1,23.9c3.8,7.7,9.5,19.1,20.3,14.7,9.2-3.8,23.8-15.6,21.2-26.1h0Z"/>
  <path class="st1" d="M154.6,177.9c-12,0-14.7-8.2-18.7-18.4-2.5,5.2-5.1,10.3-6.5,16.2-.5,2,.8,3.9-.6,5.9-5.1-2.4-9.8-8.1-9.2-13.9,1-10.4,22-57.6,27.8-70.4-3.8,0-7.2,1.9-10.6.8-6.9-2.3-17.8-11.7-15.9-15.8s33.4-10.2,39.6-10.3l3.4-5.5c1.3-2.2,3.7-3.2,6.2-2.1,3,1.3,5.3,3.5,7.6,5.9,8.4,0,29.3,1.1,35.2,6.5,4,3.6,6.4,8.5,9.1,13.1,2.9,5.6,2.2,11.6-1.8,16.7-8.7,11-21.4,17.2-35.4,19.9,9.8,5.1,16.3,14.2,14.7,24.8-1.2,8-7,14-13.5,18.3-9.8,4.9-20.1,8.1-31.1,8.2h0ZM204.8,101c.8-1.1,1.5-2.1,1.3-3.3-.1-1.1-1.2-1.7-2.5-2.2-11-2.5-22-3.4-33.2-2.1l-12.3,22.1c15.6,0,35.4-3,46.7-14.4h0ZM181.2,138.8c-5.7-8.3-19.7-11.5-29.3-12.4l-12.1,23.9c3.8,7.7,9.5,19.1,20.3,14.7,9.2-3.8,23.8-15.6,21.2-26.1h0Z"/>
  <path class="st0" d="M106.3,160.6c-3,4.9-6.8,8.4-11.5,11.3-16.4,10.3-42.5,17.4-59.9,6.5-6.2-3.9-9.4-10.6-8.1-17.8.6-3,3.2-10.5,5.9-11.1,2.3-.5.8,5.9,10,12.2,11.1,7.6,30.5,11.2,40.7,2.7,2.7-2.3,3.5-5.9,2-9-1.8-4-4.7-6.8-8-9.5-6.2-5.2-12.5-9.8-18.3-15.4-9.2-8.7-11.4-21.4-4.9-32.6,6.1-10.5,15.2-19,26.4-24.1,4-1.8,8.2-3.6,12.6-3.5,9.8.2,25.8,9.7,21.6,21.4-3,8.5-7.1,16.3-12.4,23.4-1.6,2.2-4.8,3-6.9,1.3-6.3-4.9-12.9-7.8-9.4-13.5.5-.8,14.7-22.3,6.9-18.1-8.5,4.5-15.8,11.5-20.5,20-1.5,2.7-2.6,7-.8,9.5,5,6.7,22.3,14.8,31.8,24.3,6.1,6,7.3,14.6,2.8,22.1h0Z"/>
  <path class="st1" d="M104.1,157.8c-3,4.9-6.8,8.4-11.5,11.3-16.4,10.3-42.5,17.4-59.9,6.5-6.2-3.9-9.4-10.6-8.1-17.8.6-3,3.2-10.5,5.9-11.1,2.3-.5.8,5.9,10,12.2,11.1,7.6,30.5,11.2,40.7,2.7,2.7-2.3,3.5-5.9,2-9-1.8-4-4.7-6.8-8-9.5-6.2-5.2-12.5-9.8-18.3-15.4-9.2-8.7-11.4-21.4-4.9-32.6,6.1-10.5,15.2-19,26.4-24.1,4-1.8,8.2-3.6,12.6-3.5,9.8.2,25.8,9.7,21.6,21.4-3,8.5-7.1,16.3-12.4,23.4-1.6,2.2-4.8,3-6.9,1.3-6.3-4.9-12.9-7.8-9.4-13.5.5-.8,14.7-22.3,6.9-18.1-8.5,4.5-15.8,11.5-20.5,20-1.5,2.7-2.6,7-.8,9.5,5,6.7,22.3,14.8,31.8,24.3,6.1,6,7.3,14.6,2.8,22.1h0Z"/>
</svg>